<svg width="30" height="31" viewBox="0 0 30 31" fill="none" xmlns="http://www.w3.org/2000/svg">
<rect y="1.51111" width="29.4889" height="29.4889" rx="1" fill="white" fill-opacity="0.91"/>
<path d="M7.46865 10.448C6.80865 10.448 6.26598 10.2573 5.84065 9.876C5.42998 9.48 5.22465 8.996 5.22465 8.424C5.22465 7.83733 5.42998 7.35333 5.84065 6.972C6.26598 6.576 6.80865 6.378 7.46865 6.378C8.11398 6.378 8.64198 6.576 9.05265 6.972C9.47798 7.35333 9.69065 7.83733 9.69065 8.424C9.69065 8.996 9.47798 9.48 9.05265 9.876C8.64198 10.2573 8.11398 10.448 7.46865 10.448ZM9.33865 11.724V24H5.57665V11.724H9.33865ZM19.5449 11.592C20.9823 11.592 22.1263 12.0613 22.9769 13C23.8423 13.924 24.2749 15.2 24.2749 16.828V24H20.5349V17.334C20.5349 16.5127 20.3223 15.8747 19.8969 15.42C19.4716 14.9653 18.8996 14.738 18.1809 14.738C17.4623 14.738 16.8903 14.9653 16.4649 15.42C16.0396 15.8747 15.8269 16.5127 15.8269 17.334V24H12.0649V11.724H15.8269V13.352C16.2083 12.8093 16.7216 12.384 17.3669 12.076C18.0123 11.7533 18.7383 11.592 19.5449 11.592Z" fill="black" fill-opacity="0.91"/>
</svg>
